<svg width="375" height="140" viewBox="0 0 375 140" fill="none" xmlns="http://www.w3.org/2000/svg">
<path d="M56.5816 53.95C59.015 54.45 60.865 55.4333 62.1316 56.9C63.3983 58.3333 64.0316 60.2167 64.0316 62.55C64.0316 65.5833 62.9483 67.9167 60.7816 69.55C58.6483 71.1833 55.4983 72 51.3316 72H35.8316V37H50.3816C54.115 37 57.0316 37.7667 59.1316 39.3C61.2316 40.8333 62.2816 43.05 62.2816 45.95C62.2816 47.9167 61.7816 49.5833 60.7816 50.95C59.7816 52.2833 58.3816 53.2833 56.5816 53.95ZM39.4816 52.85H50.1816C52.8816 52.85 54.9483 52.3 56.3816 51.2C57.8483 50.1 58.5816 48.5 58.5816 46.4C58.5816 44.3 57.8483 42.7 56.3816 41.6C54.9483 40.5 52.8816 39.95 50.1816 39.95H39.4816V52.85ZM51.3316 69.05C57.365 69.05 60.3816 66.8 60.3816 62.3C60.3816 57.9 57.365 55.7 51.3316 55.7H39.4816V69.05H51.3316ZM108.283 72.25C105.749 72.25 103.466 71.6833 101.433 70.55C99.3995 69.3833 97.7995 67.7833 96.6328 65.75C95.4661 63.7167 94.8828 61.4167 94.8828 58.85C94.8828 56.2833 95.4661 53.9833 96.6328 51.95C97.7995 49.9167 99.3995 48.3333 101.433 47.2C103.466 46.0667 105.749 45.5 108.283 45.5C110.816 45.5 113.099 46.0667 115.133 47.2C117.166 48.3333 118.749 49.9167 119.883 51.95C121.049 53.9833 121.633 56.2833 121.633 58.85C121.633 61.4167 121.049 63.7167 119.883 65.75C118.749 67.7833 117.166 69.3833 115.133 70.55C113.099 71.6833 110.816 72.25 108.283 72.25ZM108.283 69.1C110.149 69.1 111.816 68.6833 113.283 67.85C114.783 66.9833 115.949 65.7667 116.783 64.2C117.616 62.6333 118.033 60.85 118.033 58.85C118.033 56.85 117.616 55.0667 116.783 53.5C115.949 51.9333 114.783 50.7333 113.283 49.9C111.816 49.0333 110.149 48.6 108.283 48.6C106.416 48.6 104.733 49.0333 103.233 49.9C101.766 50.7333 100.599 51.9333 99.7328 53.5C98.8995 55.0667 98.4828 56.85 98.4828 58.85C98.4828 60.85 98.8995 62.6333 99.7328 64.2C100.599 65.7667 101.766 66.9833 103.233 67.85C104.733 68.6833 106.416 69.1 108.283 69.1ZM166.825 58.3C168.691 58.7333 170.125 59.4833 171.125 60.55C172.158 61.6167 172.675 62.9167 172.675 64.45C172.675 65.9833 172.141 67.35 171.075 68.55C170.041 69.75 168.625 70.6833 166.825 71.35C165.025 71.9833 163.041 72.3 160.875 72.3C158.975 72.3 157.108 72.0333 155.275 71.5C153.441 70.9333 151.841 70.1167 150.475 69.05L151.675 66.4C152.875 67.3 154.275 68 155.875 68.5C157.475 69 159.091 69.25 160.725 69.25C163.158 69.25 165.141 68.8 166.675 67.9C168.241 66.9667 169.025 65.7167 169.025 64.15C169.025 62.75 168.391 61.6667 167.125 60.9C165.858 60.1 164.125 59.7 161.925 59.7H157.425V57.1H161.725C163.691 57.1 165.275 56.7333 166.475 56C167.675 55.2333 168.275 54.2167 168.275 52.95C168.275 51.55 167.591 50.45 166.225 49.65C164.891 48.85 163.141 48.45 160.975 48.45C158.141 48.45 155.341 49.1667 152.575 50.6L151.575 47.85C154.708 46.2167 157.958 45.4 161.325 45.4C163.325 45.4 165.125 45.7 166.725 46.3C168.358 46.8667 169.625 47.6833 170.525 48.75C171.458 49.8167 171.925 51.05 171.925 52.45C171.925 53.7833 171.458 54.9667 170.525 56C169.625 57.0333 168.391 57.8 166.825 58.3ZM230.034 45.7V68.8C230.034 73.2667 228.934 76.5667 226.734 78.7C224.567 80.8667 221.284 81.95 216.884 81.95C214.45 81.95 212.134 81.5833 209.934 80.85C207.767 80.15 206 79.1667 204.634 77.9L206.434 75.2C207.7 76.3333 209.234 77.2167 211.034 77.85C212.867 78.4833 214.784 78.8 216.784 78.8C220.117 78.8 222.567 78.0167 224.134 76.45C225.7 74.9167 226.484 72.5167 226.484 69.25V65.9C225.384 67.5667 223.934 68.8333 222.134 69.7C220.367 70.5667 218.4 71 216.234 71C213.767 71 211.517 70.4667 209.484 69.4C207.484 68.3 205.9 66.7833 204.734 64.85C203.6 62.8833 203.034 60.6667 203.034 58.2C203.034 55.7333 203.6 53.5333 204.734 51.6C205.9 49.6667 207.484 48.1667 209.484 47.1C211.484 46.0333 213.734 45.5 216.234 45.5C218.467 45.5 220.484 45.95 222.284 46.85C224.084 47.75 225.534 49.05 226.634 50.75V45.7H230.034ZM216.584 67.85C218.484 67.85 220.2 67.45 221.734 66.65C223.267 65.8167 224.45 64.6667 225.284 63.2C226.15 61.7333 226.584 60.0667 226.584 58.2C226.584 56.3333 226.15 54.6833 225.284 53.25C224.45 51.7833 223.267 50.65 221.734 49.85C220.234 49.0167 218.517 48.6 216.584 48.6C214.684 48.6 212.967 49 211.434 49.8C209.934 50.6 208.75 51.7333 207.884 53.2C207.05 54.6667 206.634 56.3333 206.634 58.2C206.634 60.0667 207.05 61.7333 207.884 63.2C208.75 64.6667 209.934 65.8167 211.434 66.65C212.967 67.45 214.684 67.85 216.584 67.85ZM288.757 45.7V68.8C288.757 73.2667 287.741 76.5667 285.707 78.7C283.674 80.8667 280.607 81.95 276.507 81.95C274.207 81.95 272.024 81.5833 269.957 80.85C267.924 80.15 266.274 79.1667 265.007 77.9L266.807 75.2C267.941 76.3333 269.341 77.2167 271.007 77.85C272.674 78.4833 274.457 78.8 276.357 78.8C279.391 78.8 281.624 78.0167 283.057 76.45C284.491 74.9167 285.207 72.5167 285.207 69.25V66.2C284.274 67.7333 282.991 68.9167 281.357 69.75C279.757 70.5833 277.941 71 275.907 71C272.474 71 269.757 70.05 267.757 68.15C265.791 66.2167 264.807 63.4 264.807 59.7V45.7H268.357V59.35C268.357 62.1167 269.041 64.2167 270.407 65.65C271.774 67.0833 273.724 67.8 276.257 67.8C279.024 67.8 281.207 66.9667 282.807 65.3C284.407 63.6 285.207 61.25 285.207 58.25V45.7H288.757ZM340.25 72L331.9 61L323.5 72H319.5L329.9 58.5L320 45.7H324L331.9 56L339.8 45.7H343.7L333.8 58.5L344.3 72H340.25ZM138.006 104.986C138.162 104.986 138.282 105.058 138.366 105.202C138.462 105.346 138.51 105.544 138.51 105.796C138.51 106.276 138.396 106.648 138.168 106.912C137.652 107.548 137.094 108.07 136.494 108.478C135.906 108.886 135.234 109.09 134.478 109.09C133.842 109.09 133.326 108.862 132.93 108.406C132.246 108.85 131.532 109.078 130.788 109.09C130.632 111.406 130.278 113.338 129.726 114.886C129.174 116.446 128.364 117.226 127.296 117.226C126.648 117.226 126.168 116.992 125.856 116.524C125.544 116.056 125.388 115.408 125.388 114.58C125.388 113.404 125.658 112.03 126.198 110.458C126.738 108.898 127.572 107.176 128.7 105.292C128.7 103.54 128.688 102.322 128.664 101.638C128.652 101.29 128.79 101.014 129.078 100.81C129.366 100.606 129.726 100.504 130.158 100.504C130.41 100.504 130.59 100.558 130.698 100.666C130.818 100.762 130.884 100.96 130.896 101.26C130.896 101.56 130.902 101.782 130.914 101.926C131.298 101.446 131.676 101.104 132.048 100.9C132.42 100.684 132.816 100.576 133.236 100.576C133.908 100.576 134.454 100.846 134.874 101.386C135.306 101.926 135.522 102.634 135.522 103.51C135.522 104.146 135.42 104.764 135.216 105.364C135.012 105.964 134.73 106.51 134.37 107.002C134.622 107.074 134.832 107.11 135 107.11C135.396 107.11 135.774 106.966 136.134 106.678C136.494 106.39 136.956 105.91 137.52 105.238C137.664 105.07 137.826 104.986 138.006 104.986ZM130.878 107.362C131.31 107.266 131.706 107.032 132.066 106.66C132.438 106.276 132.732 105.808 132.948 105.256C133.164 104.692 133.272 104.104 133.272 103.492C133.272 103.132 133.2 102.862 133.056 102.682C132.912 102.49 132.72 102.394 132.48 102.394C132.048 102.394 131.526 102.85 130.914 103.762C130.902 104.29 130.896 105.064 130.896 106.084C130.896 106.636 130.89 107.062 130.878 107.362ZM127.44 115.462C127.764 115.462 128.034 114.754 128.25 113.338C128.466 111.934 128.604 110.182 128.664 108.082C128.148 109.282 127.74 110.428 127.44 111.52C127.14 112.612 126.99 113.53 126.99 114.274C126.99 114.658 127.038 114.952 127.134 115.156C127.218 115.36 127.32 115.462 127.44 115.462ZM152.288 104.986C152.444 104.986 152.564 105.058 152.648 105.202C152.744 105.346 152.792 105.544 152.792 105.796C152.792 106.276 152.678 106.648 152.45 106.912C152.006 107.452 151.376 107.95 150.56 108.406C149.756 108.862 148.892 109.09 147.968 109.09C146.708 109.09 145.73 108.748 145.034 108.064C144.338 107.38 143.99 106.444 143.99 105.256C143.99 104.428 144.164 103.66 144.512 102.952C144.86 102.232 145.34 101.662 145.952 101.242C146.576 100.822 147.278 100.612 148.058 100.612C148.754 100.612 149.312 100.822 149.732 101.242C150.152 101.65 150.362 102.208 150.362 102.916C150.362 103.744 150.062 104.458 149.462 105.058C148.874 105.646 147.872 106.114 146.456 106.462C146.756 107.014 147.326 107.29 148.166 107.29C148.706 107.29 149.318 107.104 150.002 106.732C150.698 106.348 151.298 105.85 151.802 105.238C151.946 105.07 152.108 104.986 152.288 104.986ZM147.752 102.376C147.308 102.376 146.93 102.634 146.618 103.15C146.318 103.666 146.168 104.29 146.168 105.022V105.058C146.876 104.89 147.434 104.638 147.842 104.302C148.25 103.966 148.454 103.576 148.454 103.132C148.454 102.904 148.388 102.724 148.256 102.592C148.136 102.448 147.968 102.376 147.752 102.376ZM161.965 109.09C160.789 109.09 159.871 108.76 159.211 108.1C158.563 107.428 158.239 106.546 158.239 105.454C158.239 104.482 158.431 103.63 158.815 102.898C159.199 102.166 159.697 101.602 160.309 101.206C160.921 100.81 161.563 100.612 162.235 100.612C162.895 100.612 163.405 100.81 163.765 101.206C164.137 101.59 164.323 102.088 164.323 102.7C164.323 103.204 164.209 103.63 163.981 103.978C163.765 104.326 163.477 104.5 163.117 104.5C162.889 104.5 162.703 104.446 162.559 104.338C162.427 104.23 162.361 104.08 162.361 103.888C162.361 103.804 162.373 103.708 162.397 103.6C162.421 103.492 162.439 103.414 162.451 103.366C162.511 103.186 162.541 103.018 162.541 102.862C162.541 102.706 162.499 102.586 162.415 102.502C162.343 102.418 162.235 102.376 162.091 102.376C161.815 102.376 161.557 102.502 161.317 102.754C161.077 102.994 160.885 103.324 160.741 103.744C160.597 104.164 160.525 104.626 160.525 105.13C160.525 106.522 161.131 107.218 162.343 107.218C162.835 107.218 163.363 107.056 163.927 106.732C164.503 106.396 165.067 105.898 165.619 105.238C165.763 105.07 165.925 104.986 166.105 104.986C166.261 104.986 166.381 105.058 166.465 105.202C166.561 105.346 166.609 105.544 166.609 105.796C166.609 106.252 166.495 106.624 166.267 106.912C165.703 107.608 165.025 108.148 164.233 108.532C163.453 108.904 162.697 109.09 161.965 109.09ZM173.632 109.09C173.176 109.09 172.852 108.85 172.66 108.37C172.48 107.89 172.39 107.122 172.39 106.066C172.39 104.506 172.612 103.024 173.056 101.62C173.164 101.272 173.338 101.02 173.578 100.864C173.83 100.696 174.178 100.612 174.622 100.612C174.862 100.612 175.03 100.642 175.126 100.702C175.222 100.762 175.27 100.876 175.27 101.044C175.27 101.236 175.18 101.668 175 102.34C174.88 102.82 174.784 103.24 174.712 103.6C174.64 103.948 174.58 104.386 174.532 104.914C174.856 103.978 175.24 103.186 175.684 102.538C176.14 101.89 176.602 101.41 177.07 101.098C177.55 100.774 178 100.612 178.42 100.612C178.84 100.612 179.134 100.708 179.302 100.9C179.482 101.092 179.572 101.386 179.572 101.782C179.572 102.166 179.458 102.862 179.23 103.87C179.134 104.302 179.068 104.626 179.032 104.842C179.632 103.366 180.298 102.292 181.03 101.62C181.762 100.948 182.446 100.612 183.082 100.612C183.862 100.612 184.252 101.002 184.252 101.782C184.252 102.25 184.12 103.096 183.856 104.32C183.628 105.364 183.514 106.054 183.514 106.39C183.514 106.87 183.688 107.11 184.036 107.11C184.276 107.11 184.558 106.966 184.882 106.678C185.218 106.378 185.662 105.898 186.214 105.238C186.358 105.07 186.52 104.986 186.7 104.986C186.856 104.986 186.976 105.058 187.06 105.202C187.156 105.346 187.204 105.544 187.204 105.796C187.204 106.276 187.09 106.648 186.862 106.912C186.346 107.548 185.788 108.07 185.188 108.478C184.6 108.886 183.928 109.09 183.172 109.09C182.56 109.09 182.098 108.916 181.786 108.568C181.474 108.208 181.318 107.692 181.318 107.02C181.318 106.684 181.402 106.084 181.57 105.22C181.726 104.464 181.804 103.942 181.804 103.654C181.804 103.462 181.738 103.366 181.606 103.366C181.45 103.366 181.228 103.57 180.94 103.978C180.652 104.374 180.364 104.902 180.076 105.562C179.788 106.222 179.554 106.918 179.374 107.65C179.242 108.226 179.086 108.61 178.906 108.802C178.738 108.994 178.462 109.09 178.078 109.09C177.682 109.09 177.382 108.904 177.178 108.532C176.986 108.148 176.89 107.686 176.89 107.146C176.89 106.69 176.95 106.03 177.07 105.166C177.166 104.398 177.214 103.894 177.214 103.654C177.214 103.462 177.148 103.366 177.016 103.366C176.836 103.366 176.608 103.582 176.332 104.014C176.056 104.446 175.786 104.998 175.522 105.67C175.27 106.342 175.066 107.002 174.91 107.65C174.778 108.214 174.622 108.598 174.442 108.802C174.274 108.994 174.004 109.09 173.632 109.09ZM202.128 103.474C202.284 103.474 202.404 103.552 202.488 103.708C202.572 103.864 202.614 104.062 202.614 104.302C202.614 104.878 202.44 105.22 202.092 105.328C201.372 105.58 200.58 105.724 199.716 105.76C199.488 106.768 199.038 107.578 198.366 108.19C197.694 108.79 196.932 109.09 196.08 109.09C195.36 109.09 194.742 108.916 194.226 108.568C193.722 108.22 193.338 107.758 193.074 107.182C192.81 106.606 192.678 105.982 192.678 105.31C192.678 104.398 192.852 103.588 193.2 102.88C193.548 102.16 194.028 101.602 194.64 101.206C195.252 100.798 195.93 100.594 196.674 100.594C197.586 100.594 198.318 100.912 198.87 101.548C199.434 102.172 199.764 102.946 199.86 103.87C200.424 103.834 201.096 103.714 201.876 103.51C201.972 103.486 202.056 103.474 202.128 103.474ZM196.224 107.182C196.608 107.182 196.938 107.026 197.214 106.714C197.502 106.402 197.694 105.952 197.79 105.364C197.418 105.112 197.13 104.782 196.926 104.374C196.734 103.966 196.638 103.534 196.638 103.078C196.638 102.886 196.656 102.694 196.692 102.502H196.602C196.122 102.502 195.72 102.736 195.396 103.204C195.084 103.66 194.928 104.308 194.928 105.148C194.928 105.808 195.054 106.312 195.306 106.66C195.57 107.008 195.876 107.182 196.224 107.182ZM217.881 104.986C218.037 104.986 218.157 105.058 218.241 105.202C218.337 105.346 218.385 105.544 218.385 105.796C218.385 106.276 218.271 106.648 218.043 106.912C217.527 107.548 216.969 108.07 216.369 108.478C215.781 108.886 215.109 109.09 214.353 109.09C213.717 109.09 213.201 108.862 212.805 108.406C212.121 108.85 211.407 109.078 210.663 109.09C210.507 111.406 210.153 113.338 209.601 114.886C209.049 116.446 208.239 117.226 207.171 117.226C206.523 117.226 206.043 116.992 205.731 116.524C205.419 116.056 205.263 115.408 205.263 114.58C205.263 113.404 205.533 112.03 206.073 110.458C206.613 108.898 207.447 107.176 208.575 105.292C208.575 103.54 208.563 102.322 208.539 101.638C208.527 101.29 208.665 101.014 208.953 100.81C209.241 100.606 209.601 100.504 210.033 100.504C210.285 100.504 210.465 100.558 210.573 100.666C210.693 100.762 210.759 100.96 210.771 101.26C210.771 101.56 210.777 101.782 210.789 101.926C211.173 101.446 211.551 101.104 211.923 100.9C212.295 100.684 212.691 100.576 213.111 100.576C213.783 100.576 214.329 100.846 214.749 101.386C215.181 101.926 215.397 102.634 215.397 103.51C215.397 104.146 215.295 104.764 215.091 105.364C214.887 105.964 214.605 106.51 214.245 107.002C214.497 107.074 214.707 107.11 214.875 107.11C215.271 107.11 215.649 106.966 216.009 106.678C216.369 106.39 216.831 105.91 217.395 105.238C217.539 105.07 217.701 104.986 217.881 104.986ZM210.753 107.362C211.185 107.266 211.581 107.032 211.941 106.66C212.313 106.276 212.607 105.808 212.823 105.256C213.039 104.692 213.147 104.104 213.147 103.492C213.147 103.132 213.075 102.862 212.931 102.682C212.787 102.49 212.595 102.394 212.355 102.394C211.923 102.394 211.401 102.85 210.789 103.762C210.777 104.29 210.771 105.064 210.771 106.084C210.771 106.636 210.765 107.062 210.753 107.362ZM207.315 115.462C207.639 115.462 207.909 114.754 208.125 113.338C208.341 111.934 208.479 110.182 208.539 108.082C208.023 109.282 207.615 110.428 207.315 111.52C207.015 112.612 206.865 113.53 206.865 114.274C206.865 114.658 206.913 114.952 207.009 115.156C207.093 115.36 207.195 115.462 207.315 115.462ZM226.349 109.09C225.605 109.09 225.011 108.82 224.567 108.28C224.123 107.74 223.901 107.032 223.901 106.156C223.901 105.196 224.123 104.29 224.567 103.438C225.011 102.574 225.599 101.884 226.331 101.368C227.075 100.84 227.861 100.576 228.689 100.576C228.953 100.576 229.127 100.63 229.211 100.738C229.307 100.834 229.385 101.014 229.445 101.278C229.697 101.23 229.961 101.206 230.237 101.206C230.825 101.206 231.119 101.416 231.119 101.836C231.119 102.088 231.029 102.688 230.849 103.636C230.573 105.016 230.435 105.976 230.435 106.516C230.435 106.696 230.477 106.84 230.561 106.948C230.657 107.056 230.777 107.11 230.921 107.11C231.149 107.11 231.425 106.966 231.749 106.678C232.073 106.378 232.511 105.898 233.063 105.238C233.207 105.07 233.369 104.986 233.549 104.986C233.705 104.986 233.825 105.058 233.909 105.202C234.005 105.346 234.053 105.544 234.053 105.796C234.053 106.276 233.939 106.648 233.711 106.912C233.219 107.524 232.697 108.04 232.145 108.46C231.593 108.88 231.059 109.09 230.543 109.09C230.147 109.09 229.781 108.958 229.445 108.694C229.121 108.418 228.875 108.046 228.707 107.578C228.083 108.586 227.297 109.09 226.349 109.09ZM226.997 107.272C227.261 107.272 227.513 107.116 227.753 106.804C227.993 106.492 228.167 106.078 228.275 105.562L228.941 102.25C228.437 102.262 227.969 102.454 227.537 102.826C227.117 103.186 226.781 103.666 226.529 104.266C226.277 104.866 226.151 105.502 226.151 106.174C226.151 106.546 226.223 106.822 226.367 107.002C226.523 107.182 226.733 107.272 226.997 107.272ZM249.295 104.986C249.451 104.986 249.571 105.058 249.655 105.202C249.751 105.346 249.799 105.544 249.799 105.796C249.799 106.276 249.685 106.648 249.457 106.912C248.905 107.548 248.335 108.07 247.747 108.478C247.171 108.886 246.511 109.09 245.767 109.09C245.143 109.09 244.705 108.898 244.453 108.514C244.201 108.13 244.075 107.554 244.075 106.786C244.075 106.462 244.105 106.072 244.165 105.616C243.109 105.616 242.377 105.604 241.969 105.58C241.945 105.916 241.933 106.15 241.933 106.282V106.66C241.921 107.404 241.903 107.926 241.879 108.226C241.855 108.526 241.783 108.748 241.663 108.892C241.543 109.024 241.345 109.09 241.069 109.09C240.613 109.09 240.289 108.85 240.097 108.37C239.917 107.89 239.827 107.122 239.827 106.066C239.827 104.506 240.049 103.024 240.493 101.62C240.601 101.272 240.775 101.02 241.015 100.864C241.255 100.696 241.603 100.612 242.059 100.612C242.299 100.612 242.467 100.642 242.563 100.702C242.659 100.762 242.707 100.876 242.707 101.044C242.707 101.236 242.617 101.668 242.437 102.34C242.341 102.736 242.251 103.216 242.167 103.78H244.471C244.591 103.216 244.765 102.496 244.993 101.62C245.089 101.26 245.233 101.002 245.425 100.846C245.629 100.69 245.929 100.612 246.325 100.612C246.601 100.612 246.793 100.648 246.901 100.72C247.009 100.78 247.063 100.9 247.063 101.08C247.063 101.38 246.913 102.202 246.613 103.546C246.277 105.082 246.109 106.03 246.109 106.39C246.109 106.618 246.157 106.798 246.253 106.93C246.349 107.05 246.475 107.11 246.631 107.11C246.871 107.11 247.153 106.966 247.477 106.678C247.813 106.378 248.257 105.898 248.809 105.238C248.953 105.07 249.115 104.986 249.295 104.986Z" fill="#F0F8FF"/>
</svg>
