<svg width="24" height="24" viewBox="0 0 24 24" fill="none" xmlns="http://www.w3.org/2000/svg">
<g clip-path="url(#clip0)">
<path d="M24 7.2108H20.6052C18.2532 5.61 15.3756 4.8 12 4.8C8.6244 4.8 5.7456 5.61 3.3948 7.2108H0C0.5136 7.7148 0.9924 8.8188 1.1916 9.6588C0.422184 10.6831 0.00423245 11.9285 0 13.2096C0 16.518 2.6916 19.2096 6 19.2096C7.53017 19.2069 9.00077 18.6162 10.1076 17.5596L12 20.4L13.8924 17.5608C14.999 18.6178 16.4697 19.209 18 19.212C21.3084 19.212 24 16.5204 24 13.212C24 11.8776 23.5476 10.656 22.8084 9.66C23.0076 8.82 23.4864 7.716 24 7.212V7.2108ZM6 17.2908C3.75 17.2908 1.92 15.4608 1.92 13.2108C1.92 10.9608 3.75 9.1308 6 9.1308C8.25 9.1308 10.08 10.9608 10.08 13.2108C10.08 15.4608 8.25 17.2908 6 17.2908ZM12 13.2108C11.998 11.8266 11.5182 10.4855 10.6416 9.41417C9.76509 8.34283 8.5456 7.60693 7.1892 7.3308C8.634 6.8448 10.236 6.6 12 6.6C13.764 6.6 15.366 6.8448 16.8108 7.332C15.4548 7.60804 14.2356 8.34359 13.3591 9.41444C12.4827 10.4853 12.0026 11.8258 12 13.2096V13.2108ZM18 17.2908C15.75 17.2908 13.92 15.4608 13.92 13.2108C13.92 10.9608 15.75 9.1308 18 9.1308C20.25 9.1308 22.08 10.9608 22.08 13.2108C22.08 15.4608 20.25 17.2908 18 17.2908V17.2908ZM6 10.632C4.578 10.632 3.42 11.7888 3.42 13.212C3.42 14.6352 4.578 15.792 6 15.792C7.422 15.792 8.58 14.6352 8.58 13.212C8.58 11.7888 7.422 10.632 6 10.632ZM6 13.9812C5.79313 13.9812 5.59474 13.899 5.44846 13.7527C5.30218 13.6065 5.22 13.4081 5.22 13.2012C5.22 12.9943 5.30218 12.7959 5.44846 12.6497C5.59474 12.5034 5.79313 12.4212 6 12.4212C6.20687 12.4212 6.40527 12.5034 6.55154 12.6497C6.69782 12.7959 6.78 12.9943 6.78 13.2012C6.78 13.4081 6.69782 13.6065 6.55154 13.7527C6.40527 13.899 6.20687 13.9812 6 13.9812ZM18 10.632C16.578 10.632 15.42 11.7888 15.42 13.212C15.42 14.6352 16.578 15.792 18 15.792C19.422 15.792 20.58 14.6352 20.58 13.212C20.58 11.7888 19.422 10.632 18 10.632V10.632ZM18 13.9812C17.7931 13.9812 17.5947 13.899 17.4485 13.7527C17.3022 13.6065 17.22 13.4081 17.22 13.2012C17.22 12.9943 17.3022 12.7959 17.4485 12.6497C17.5947 12.5034 17.7931 12.4212 18 12.4212C18.2069 12.4212 18.4053 12.5034 18.5515 12.6497C18.6978 12.7959 18.78 12.9943 18.78 13.2012C18.78 13.4081 18.6978 13.6065 18.5515 13.7527C18.4053 13.899 18.2069 13.9812 18 13.9812V13.9812Z" fill="#D3D3D3"/>
</g>
<defs>
<clipPath id="clip0">
<rect width="24" height="24" fill="white"/>
</clipPath>
</defs>
</svg>
